# xmcd
# 
# Track frame offsets:
#     150
#     40048
#     138626
#     171450
#     205517
#     243965
#     315787
# 
# Disc length: 4404
# 
# Revision: 0
# Processed by: cddbd v1.5.2PL0 Copyright (c) Steve Scherf et al.
# Submitted via: fre:ac v1.0.17
# 
DISCID=54113207
DTITLE=Die Märchen der Gebrüder Grimm - Die Märchen der Gebrüder Grimm - CD4
DYEAR=2011
DGENRE=Hörbuch
TTITLE0=Rotkäppchen
TTITLE1=Schneewittchen
TTITLE2=Frau Holle
TTITLE3=Rapunzel
TTITLE4=Die Bremer Stadtmusikanten
TTITLE5=Hänsel und Gretel
TTITLE6=Die Sterntaler
EXTD=
EXTT0=
EXTT1=
EXTT2=
EXTT3=
EXTT4=
EXTT5=
EXTT6=
PLAYORDER=
